<?xml version="1.0" encoding="UTF-8"?>
<!DOCTYPE svg PUBLIC "-//W3C//DTD SVG 1.1//EN" "http://www.w3.org/Graphics/SVG/1.1/DTD/svg11.dtd">
<svg version="1.2" width="210mm" height="297mm" viewBox="0 0 21000 29700" preserveAspectRatio="xMidYMid" fill-rule="evenodd" stroke-width="28.222" stroke-linejoin="round" xmlns="http://www.w3.org/2000/svg" xmlns:ooo="http://xml.openoffice.org/svg/export" xmlns:xlink="http://www.w3.org/1999/xlink" xmlns:presentation="http://sun.com/xmlns/staroffice/presentation" xmlns:smil="http://www.w3.org/2001/SMIL20/" xmlns:anim="urn:oasis:names:tc:opendocument:xmlns:animation:1.0" xmlns:svg="urn:oasis:names:tc:opendocument:xmlns:svg-compatible:1.0" xml:space="preserve">
 <defs class="ClipPathGroup">
  <clipPath id="presentation_clip_path" clipPathUnits="userSpaceOnUse">
   <rect x="0" y="0" width="21000" height="29700"/>
  </clipPath>
  <clipPath id="presentation_clip_path_shrink" clipPathUnits="userSpaceOnUse">
   <rect x="21" y="29" width="20958" height="29641"/>
  </clipPath>
 </defs>
 <defs class="TextShapeIndex">
  <g ooo:slide="id1" ooo:id-list="id3 id4 id5 id6 id7 id8 id9 id10 id11 id12 id13"/>
 </defs>
 <defs class="EmbeddedBulletChars">
  <g id="bullet-char-template-57356" transform="scale(0.00048828125,-0.00048828125)">
   <path d="M 580,1141 L 1163,571 580,0 -4,571 580,1141 Z"/>
  </g>
  <g id="bullet-char-template-57354" transform="scale(0.00048828125,-0.00048828125)">
   <path d="M 8,1128 L 1137,1128 1137,0 8,0 8,1128 Z"/>
  </g>
  <g id="bullet-char-template-10146" transform="scale(0.00048828125,-0.00048828125)">
   <path d="M 174,0 L 602,739 174,1481 1456,739 174,0 Z M 1358,739 L 309,1346 659,739 1358,739 Z"/>
  </g>
  <g id="bullet-char-template-10132" transform="scale(0.00048828125,-0.00048828125)">
   <path d="M 2015,739 L 1276,0 717,0 1260,543 174,543 174,936 1260,936 717,1481 1274,1481 2015,739 Z"/>
  </g>
  <g id="bullet-char-template-10007" transform="scale(0.00048828125,-0.00048828125)">
   <path d="M 0,-2 C -7,14 -16,27 -25,37 L 356,567 C 262,823 215,952 215,954 215,979 228,992 255,992 264,992 276,990 289,987 310,991 331,999 354,1012 L 381,999 492,748 772,1049 836,1024 860,1049 C 881,1039 901,1025 922,1006 886,937 835,863 770,784 769,783 710,716 594,584 L 774,223 C 774,196 753,168 711,139 L 727,119 C 717,90 699,76 672,76 641,76 570,178 457,381 L 164,-76 C 142,-110 111,-127 72,-127 30,-127 9,-110 8,-76 1,-67 -2,-52 -2,-32 -2,-23 -1,-13 0,-2 Z"/>
  </g>
  <g id="bullet-char-template-10004" transform="scale(0.00048828125,-0.00048828125)">
   <path d="M 285,-33 C 182,-33 111,30 74,156 52,228 41,333 41,471 41,549 55,616 82,672 116,743 169,778 240,778 293,778 328,747 346,684 L 369,508 C 377,444 397,411 428,410 L 1163,1116 C 1174,1127 1196,1133 1229,1133 1271,1133 1292,1118 1292,1087 L 1292,965 C 1292,929 1282,901 1262,881 L 442,47 C 390,-6 338,-33 285,-33 Z"/>
  </g>
  <g id="bullet-char-template-9679" transform="scale(0.00048828125,-0.00048828125)">
   <path d="M 813,0 C 632,0 489,54 383,161 276,268 223,411 223,592 223,773 276,916 383,1023 489,1130 632,1184 813,1184 992,1184 1136,1130 1245,1023 1353,916 1407,772 1407,592 1407,412 1353,268 1245,161 1136,54 992,0 813,0 Z"/>
  </g>
  <g id="bullet-char-template-8226" transform="scale(0.00048828125,-0.00048828125)">
   <path d="M 346,457 C 273,457 209,483 155,535 101,586 74,649 74,723 74,796 101,859 155,911 209,963 273,989 346,989 419,989 480,963 531,910 582,859 608,796 608,723 608,648 583,586 532,535 482,483 420,457 346,457 Z"/>
  </g>
  <g id="bullet-char-template-8211" transform="scale(0.00048828125,-0.00048828125)">
   <path d="M -4,459 L 1135,459 1135,606 -4,606 -4,459 Z"/>
  </g>
  <g id="bullet-char-template-61548" transform="scale(0.00048828125,-0.00048828125)">
   <path d="M 173,740 C 173,903 231,1043 346,1159 462,1274 601,1332 765,1332 928,1332 1067,1274 1183,1159 1299,1043 1357,903 1357,740 1357,577 1299,437 1183,322 1067,206 928,148 765,148 601,148 462,206 346,322 231,437 173,577 173,740 Z"/>
  </g>
 </defs>
 <g>
  <g id="id2" class="Master_Slide">
   <g id="bg-id2" class="Background"/>
   <g id="bo-id2" class="BackgroundObjects"/>
  </g>
 </g>
 <g class="SlideGroup">
  <g>
   <g id="container-id1">
    <g id="id1" class="Slide" clip-path="url(#presentation_clip_path)">
     <g class="Page">
      <g class="Group">
       <g class="com.sun.star.drawing.ClosedBezierShape">
        <g id="id3">
         <rect class="BoundingBox" stroke="none" fill="none" x="4574" y="9637" width="1574" height="7283"/>
         <path fill="rgb(0,0,0)" stroke="none" d="M 5515,10348 C 5515,10262 5451,10187 5355,10187 5269,10187 5205,10262 5205,10348 L 5205,16208 C 5205,16294 5269,16369 5355,16369 5451,16369 5515,16294 5515,16208 L 5515,14463 C 5515,14437 5494,14416 5468,14416 L 5401,14416 C 5375,14416 5355,14395 5355,14369 L 5355,13913 C 5355,13887 5375,13866 5401,13866 L 6100,13866 C 6125,13866 6146,13887 6146,13913 L 6146,16121 C 6146,16208 6136,16294 6114,16369 6029,16637 5797,16841 5521,16897 5517,16897 5513,16899 5509,16901 5466,16919 5406,16919 5355,16919 5303,16919 5261,16919 5209,16900 5206,16898 5203,16898 5200,16897 4913,16842 4691,16638 4606,16369 4584,16294 4574,16208 4574,16121 L 4574,10435 C 4574,10348 4584,10273 4606,10187 4691,9917 4926,9712 5205,9658 5258,9647 5301,9637 5355,9637 5408,9637 5472,9647 5515,9658 5794,9712 6018,9917 6114,10187 6136,10273 6146,10348 6146,10435 L 6146,13258 C 6146,13284 6125,13305 6100,13305 L 5561,13305 C 5536,13305 5515,13284 5515,13258 L 5515,10348 Z "/>
        </g>
       </g>
       <g class="com.sun.star.drawing.ClosedBezierShape">
        <g id="id4">
         <rect class="BoundingBox" stroke="none" fill="none" x="6814" y="9691" width="1574" height="7175"/>
         <path fill="rgb(0,0,0)" stroke="none" d="M 8386,13618 C 8386,13703 8376,13777 8355,13862 8354,13865 8354,13867 8352,13870 8317,13951 8280,14032 8225,14101 8209,14121 8209,14150 8225,14170 8281,14240 8318,14324 8354,14416 8375,14492 8386,14567 8386,14653 L 8386,16818 C 8386,16844 8365,16865 8340,16865 L 7801,16865 C 7776,16865 7755,16844 7755,16818 L 7755,14567 C 7755,14481 7691,14416 7594,14416 L 7491,14416 C 7466,14416 7445,14437 7445,14463 L 7445,16818 C 7445,16844 7424,16865 7398,16865 L 6860,16865 C 6834,16865 6814,16844 6814,16818 L 6814,9737 C 6814,9712 6834,9691 6860,9691 L 7594,9691 C 7648,9691 7712,9691 7755,9701 8034,9766 8258,9971 8354,10241 8375,10316 8386,10402 8386,10489 L 8386,13618 Z M 8386,13618 L 8386,13618 Z M 7755,13704 L 7755,10402 C 7755,10316 7691,10241 7594,10241 L 7491,10241 C 7466,10241 7445,10262 7445,10288 L 7445,13819 C 7445,13845 7466,13866 7491,13866 L 7594,13866 C 7691,13866 7755,13790 7755,13704 Z "/>
        </g>
       </g>
       <g class="com.sun.star.drawing.ClosedBezierShape">
        <g id="id5">
         <rect class="BoundingBox" stroke="none" fill="none" x="9055" y="9691" width="1573" height="7229"/>
         <path fill="rgb(0,0,0)" stroke="none" d="M 9996,9737 C 9996,9712 10017,9691 10042,9691 L 10581,9691 C 10606,9691 10627,9712 10627,9737 L 10627,16121 C 10627,16208 10616,16294 10595,16369 10510,16638 10277,16842 10000,16897 9997,16898 9994,16898 9992,16900 9940,16919 9888,16919 9835,16919 9784,16919 9742,16919 9690,16900 9687,16899 9684,16898 9681,16897 9394,16842 9172,16638 9087,16369 9065,16294 9055,16208 9055,16121 L 9055,9737 C 9055,9712 9075,9691 9101,9691 L 9639,9691 C 9665,9691 9686,9712 9686,9737 L 9686,16208 C 9686,16294 9750,16369 9835,16369 9932,16369 9996,16294 9996,16208 L 9996,9737 Z "/>
        </g>
       </g>
       <g class="com.sun.star.drawing.ClosedBezierShape">
        <g id="id6">
         <rect class="BoundingBox" stroke="none" fill="none" x="11295" y="9691" width="1574" height="7175"/>
         <path fill="rgb(0,0,0)" stroke="none" d="M 11915,14567 L 11915,16267 C 11915,16293 11936,16314 11962,16314 L 12821,16314 C 12846,16314 12867,16335 12867,16361 L 12867,16818 C 12867,16844 12846,16865 12821,16865 L 11341,16865 C 11315,16865 11295,16844 11295,16818 L 11295,14653 C 11295,14567 11305,14492 11327,14416 11359,14308 11412,14211 11487,14136 11594,14006 11744,13909 11915,13877 11969,13866 12022,13866 12075,13866 12161,13866 12236,13790 12236,13704 L 12236,10288 C 12236,10262 12215,10241 12189,10241 L 11341,10241 C 11315,10241 11295,10220 11295,10194 L 11295,9737 C 11295,9712 11315,9691 11341,9691 L 12821,9691 C 12846,9691 12867,9712 12867,9737 L 12867,13618 C 12867,13703 12857,13777 12836,13862 12835,13865 12835,13867 12833,13870 12791,13965 12749,14061 12675,14136 12568,14265 12407,14362 12236,14394 12182,14405 12129,14416 12075,14416 11990,14416 11915,14481 11915,14567 Z "/>
        </g>
       </g>
       <g class="com.sun.star.drawing.ClosedBezierShape">
        <g id="id7">
         <rect class="BoundingBox" stroke="none" fill="none" x="13536" y="10639" width="623" height="6227"/>
         <path fill="rgb(0,0,0)" stroke="none" d="M 14157,16818 C 14157,16844 14136,16865 14111,16865 L 13582,16865 C 13556,16865 13536,16844 13536,16818 L 13536,10685 C 13536,10660 13556,10639 13582,10639 L 14111,10639 C 14136,10639 14157,10660 14157,10685 L 14157,16818 Z "/>
        </g>
       </g>
       <g class="com.sun.star.drawing.ClosedBezierShape">
        <g id="id8">
         <rect class="BoundingBox" stroke="none" fill="none" x="14837" y="9691" width="1573" height="7175"/>
         <path fill="rgb(0,0,0)" stroke="none" d="M 15778,9737 C 15778,9712 15799,9691 15824,9691 L 16363,9691 C 16388,9691 16409,9712 16409,9737 L 16409,16818 C 16409,16844 16388,16865 16363,16865 L 15824,16865 C 15799,16865 15778,16844 15778,16818 L 15778,11051 C 15778,11043 15776,11035 15772,11028 L 15555,10643 C 15531,10601 15468,10618 15468,10666 L 15468,16818 C 15468,16844 15447,16865 15421,16865 L 14883,16865 C 14857,16865 14837,16844 14837,16818 L 14837,9737 C 14837,9712 14857,9691 14883,9691 L 15441,9691 C 15458,9691 15473,9700 15481,9714 L 15691,10086 C 15714,10128 15778,10111 15778,10063 L 15778,9737 Z "/>
        </g>
       </g>
       <g class="com.sun.star.drawing.ClosedBezierShape">
        <g id="id9">
         <rect class="BoundingBox" stroke="none" fill="none" x="13536" y="9691" width="622" height="552"/>
         <path fill="rgb(0,0,0)" stroke="none" d="M 14157,10195 C 14157,10221 14136,10242 14111,10242 L 13582,10242 C 13556,10242 13536,10221 13536,10195 L 13536,9737 C 13536,9712 13556,9691 13582,9691 L 14111,9691 C 14136,9691 14157,9712 14157,9737 L 14157,10195 Z "/>
        </g>
       </g>
       <g class="com.sun.star.drawing.PolyPolygonShape">
        <g id="id10">
         <rect class="BoundingBox" stroke="none" fill="none" x="17942" y="12643" width="1238" height="1251"/>
         <path fill="rgb(0,0,0)" stroke="none" d="M 18561,12643 L 19179,13267 18561,13893 17942,13267 18561,12643 Z "/>
        </g>
       </g>
       <g class="com.sun.star.drawing.PolyPolygonShape">
        <g id="id11">
         <rect class="BoundingBox" stroke="none" fill="none" x="1807" y="12643" width="1238" height="1251"/>
         <path fill="rgb(0,0,0)" stroke="none" d="M 2426,12643 L 3044,13267 2426,13893 1807,13267 2426,12643 Z "/>
        </g>
       </g>
       <g class="Group">
        <g class="com.sun.star.drawing.ClosedBezierShape">
         <g id="id12">
          <rect class="BoundingBox" stroke="none" fill="none" x="3228" y="18652" width="14493" height="1414"/>
          <path fill="rgb(0,0,0)" stroke="none" d="M 3824,19117 L 3824,19146 3853,19146 3853,19117 3824,19117 Z M 3824,19117 L 3824,19117 Z M 3742,19117 L 3713,19117 3713,19146 3742,19146 3742,19117 Z M 3742,19117 L 3742,19117 Z M 3742,19418 L 3770,19418 3770,19389 3742,19389 3742,19418 Z M 3742,19418 L 3742,19418 Z M 3567,19418 L 3538,19418 3538,19447 3567,19447 3567,19418 Z M 3567,19418 L 3567,19418 Z M 3567,19338 L 3567,19309 3538,19309 3538,19338 3567,19338 Z M 3567,19338 L 3567,19338 Z M 3824,19338 L 3853,19338 3853,19309 3824,19309 3824,19338 Z M 3824,19338 L 3824,19338 Z M 3754,19946 L 3777,19963 3777,19963 3754,19946 Z M 3754,19946 L 3754,19946 Z M 3326,19946 L 3303,19963 3303,19963 3326,19946 Z M 3326,19946 L 3326,19946 Z M 3285,19699 L 3285,19019 3228,19019 3228,19699 3285,19699 Z M 3285,19699 L 3285,19699 Z M 3285,19019 C 3285,18920 3307,18845 3349,18790 L 3303,18755 C 3252,18822 3228,18911 3228,19019 L 3285,19019 Z M 3285,19019 L 3285,19019 Z M 3349,18790 C 3388,18737 3450,18709 3540,18709 L 3540,18652 C 3438,18652 3357,18685 3303,18755 L 3349,18790 Z M 3349,18790 L 3349,18790 Z M 3540,18709 C 3630,18709 3692,18737 3732,18790 L 3777,18755 C 3724,18685 3643,18652 3540,18652 L 3540,18709 Z M 3540,18709 L 3540,18709 Z M 3732,18790 C 3773,18845 3796,18920 3796,19019 L 3853,19019 C 3853,18911 3829,18822 3777,18755 L 3732,18790 Z M 3732,18790 L 3732,18790 Z M 3796,19019 L 3796,19117 3853,19117 3853,19019 3796,19019 Z M 3796,19019 L 3796,19019 Z M 3824,19088 L 3742,19088 3742,19146 3824,19146 3824,19088 Z M 3824,19088 L 3824,19088 Z M 3770,19117 L 3770,19012 3713,19012 3713,19117 3770,19117 Z M 3770,19117 L 3770,19117 Z M 3770,19012 C 3770,18930 3753,18863 3717,18811 L 3670,18845 C 3698,18884 3713,18938 3713,19012 L 3770,19012 Z M 3770,19012 L 3770,19012 Z M 3717,18811 C 3678,18757 3618,18731 3542,18731 L 3542,18789 C 3605,18789 3645,18809 3670,18845 L 3717,18811 Z M 3717,18811 L 3717,18811 Z M 3542,18731 C 3466,18731 3406,18757 3367,18811 L 3414,18845 C 3439,18809 3479,18789 3542,18789 L 3542,18731 Z M 3542,18731 L 3542,18731 Z M 3367,18811 C 3331,18863 3314,18930 3314,19012 L 3371,19012 C 3371,18938 3386,18884 3414,18845 L 3367,18811 Z M 3367,18811 L 3367,18811 Z M 3314,19012 L 3314,19705 3371,19705 3371,19012 3314,19012 Z M 3314,19012 L 3314,19012 Z M 3314,19705 C 3314,19786 3331,19854 3367,19905 L 3413,19871 C 3386,19833 3371,19779 3371,19705 L 3314,19705 Z M 3314,19705 L 3314,19705 Z M 3367,19905 C 3406,19959 3466,19984 3542,19984 L 3542,19926 C 3479,19926 3438,19906 3413,19871 L 3367,19905 Z M 3367,19905 L 3367,19905 Z M 3542,19984 C 3618,19984 3678,19959 3717,19905 L 3671,19871 C 3646,19906 3605,19926 3542,19926 L 3542,19984 Z M 3542,19984 L 3542,19984 Z M 3717,19905 C 3753,19854 3770,19786 3770,19705 L 3713,19705 C 3713,19779 3698,19833 3671,19871 L 3717,19905 Z M 3717,19905 L 3717,19905 Z M 3770,19705 L 3770,19418 3713,19418 3713,19705 3770,19705 Z M 3770,19705 L 3770,19705 Z M 3742,19389 L 3567,19389 3567,19447 3742,19447 3742,19389 Z M 3742,19389 L 3742,19389 Z M 3595,19418 L 3595,19338 3538,19338 3538,19418 3595,19418 Z M 3595,19418 L 3595,19418 Z M 3567,19367 L 3824,19367 3824,19309 3567,19309 3567,19367 Z M 3567,19367 L 3567,19367 Z M 3796,19338 L 3796,19699 3853,19699 3853,19338 3796,19338 Z M 3796,19338 L 3796,19338 Z M 3796,19699 C 3796,19798 3773,19873 3732,19928 L 3777,19963 C 3829,19895 3853,19807 3853,19699 L 3796,19699 Z M 3796,19699 L 3796,19699 Z M 3732,19928 C 3692,19980 3630,20008 3540,20008 L 3540,20065 C 3643,20065 3724,20033 3777,19963 L 3732,19928 Z M 3732,19928 L 3732,19928 Z M 3540,20008 C 3450,20008 3388,19980 3348,19928 L 3303,19963 C 3357,20033 3438,20065 3540,20065 L 3540,20008 Z M 3540,20008 L 3540,20008 Z M 3349,19928 C 3307,19873 3285,19798 3285,19699 L 3228,19699 C 3228,19807 3252,19895 3303,19963 L 3349,19928 Z M 3349,19928 L 3349,19928 Z M 4045,20025 L 4016,20025 4016,20054 4045,20054 4045,20025 Z M 4045,20025 L 4045,20025 Z M 4045,18691 L 4045,18663 4016,18663 4016,18691 4045,18691 Z M 4045,18691 L 4045,18691 Z M 4564,18691 L 4593,18691 4593,18663 4564,18663 4564,18691 Z M 4564,18691 L 4564,18691 Z M 4564,18771 L 4564,18800 4593,18800 4593,18771 4564,18771 Z M 4564,18771 L 4564,18771 Z M 4131,18771 L 4131,18743 4103,18743 4103,18771 4131,18771 Z M 4131,18771 L 4131,18771 Z M 4131,19309 L 4103,19309 4103,19338 4131,19338 4131,19309 Z M 4131,19309 L 4131,19309 Z M 4491,19309 L 4519,19309 4519,19280 4491,19280 4491,19309 Z M 4491,19309 L 4491,19309 Z M 4491,19389 L 4491,19418 4519,19418 4519,19389 4491,19389 Z M 4491,19389 L 4491,19389 Z M 4131,19389 L 4131,19360 4103,19360 4103,19389 4131,19389 Z M 4131,19389 L 4131,19389 Z M 4131,19946 L 4103,19946 4103,19974 4131,19974 4131,19946 Z M 4131,19946 L 4131,19946 Z M 4564,19946 L 4593,19946 4593,19917 4564,19917 4564,19946 Z M 4564,19946 L 4564,19946 Z M 4564,20025 L 4564,20054 4593,20054 4593,20025 4564,20025 Z M 4564,20025 L 4564,20025 Z M 4073,20025 L 4073,18691 4016,18691 4016,20025 4073,20025 Z M 4073,20025 L 4073,20025 Z M 4045,18720 L 4564,18720 4564,18663 4045,18663 4045,18720 Z M 4045,18720 L 4045,18720 Z M 4536,18691 L 4536,18771 4593,18771 4593,18691 4536,18691 Z M 4536,18691 L 4536,18691 Z M 4564,18743 L 4131,18743 4131,18800 4564,18800 4564,18743 Z M 4564,18743 L 4564,18743 Z M 4103,18771 L 4103,19309 4160,19309 4160,18771 4103,18771 Z M 4103,18771 L 4103,18771 Z M 4131,19338 L 4491,19338 4491,19280 4131,19280 4131,19338 Z M 4131,19338 L 4131,19338 Z M 4462,19309 L 4462,19389 4519,19389 4519,19309 4462,19309 Z M 4462,19309 L 4462,19309 Z M 4491,19360 L 4131,19360 4131,19418 4491,19418 4491,19360 Z M 4491,19360 L 4491,19360 Z M 4103,19389 L 4103,19946 4160,19946 4160,19389 4103,19389 Z M 4103,19389 L 4103,19389 Z M 4131,19974 L 4564,19974 4564,19917 4131,19917 4131,19974 Z M 4131,19974 L 4131,19974 Z M 4536,19946 L 4536,20025 4593,20025 4593,19946 4536,19946 Z M 4536,19946 L 4536,19946 Z M 4564,19997 L 4045,19997 4045,20054 4564,20054 4564,19997 Z M 4564,19997 L 4564,19997 Z M 4847,18772 L 4824,18754 4824,18754 4847,18772 Z M 4847,18772 L 4847,18772 Z M 5282,18772 L 5259,18790 5259,18790 5282,18772 Z M 5282,18772 L 5282,18772 Z M 5282,19946 L 5259,19927 5259,19928 5282,19946 Z M 5282,19946 L 5282,19946 Z M 4847,19946 L 4824,19963 4824,19964 4847,19946 Z M 4847,19946 L 4847,19946 Z M 4910,19890 L 4887,19907 4887,19907 4910,19890 Z M 4910,19890 L 4910,19890 Z M 4910,18828 L 4933,18845 4933,18845 4910,18828 Z M 4910,18828 L 4910,18828 Z M 4803,19699 L 4803,19019 4746,19019 4746,19699 4803,19699 Z M 4803,19699 L 4803,19699 Z M 4803,19019 C 4803,18920 4826,18845 4869,18790 L 4824,18754 C 4771,18822 4746,18911 4746,19019 L 4803,19019 Z M 4803,19019 L 4803,19019 Z M 4869,18790 C 4911,18737 4974,18709 5063,18709 L 5063,18652 C 4961,18652 4879,18685 4824,18754 L 4869,18790 Z M 4869,18790 L 4869,18790 Z M 5063,18709 C 5154,18709 5218,18738 5259,18790 L 5304,18754 C 5249,18684 5166,18652 5063,18652 L 5063,18709 Z M 5063,18709 L 5063,18709 Z M 5259,18790 C 5303,18845 5327,18920 5327,19019 L 5384,19019 C 5384,18911 5358,18822 5304,18754 L 5259,18790 Z M 5259,18790 L 5259,18790 Z M 5327,19019 L 5327,19699 5384,19699 5384,19019 5327,19019 Z M 5327,19019 L 5327,19019 Z M 5327,19699 C 5327,19798 5303,19873 5259,19927 L 5304,19964 C 5358,19896 5384,19807 5384,19699 L 5327,19699 Z M 5327,19699 L 5327,19699 Z M 5259,19928 C 5218,19980 5154,20008 5063,20008 L 5063,20065 C 5166,20065 5249,20033 5304,19964 L 5259,19928 Z M 5259,19928 L 5259,19928 Z M 5063,20008 C 4973,20008 4911,19980 4869,19928 L 4824,19964 C 4880,20033 4961,20065 5063,20065 L 5063,20008 Z M 5063,20008 L 5063,20008 Z M 4869,19928 C 4826,19873 4803,19798 4803,19699 L 4746,19699 C 4746,19807 4771,19896 4824,19963 L 4869,19928 Z M 4869,19928 L 4869,19928 Z M 4833,19705 C 4833,19787 4850,19855 4887,19907 L 4933,19873 C 4905,19834 4890,19780 4890,19705 L 4833,19705 Z M 4833,19705 L 4833,19705 Z M 4887,19907 C 4926,19961 4987,19986 5063,19986 L 5063,19928 C 5000,19928 4959,19908 4933,19873 L 4887,19907 Z M 4887,19907 L 4887,19907 Z M 5063,19986 C 5140,19986 5201,19961 5241,19906 L 5195,19872 C 5169,19908 5127,19928 5063,19928 L 5063,19986 Z M 5063,19986 L 5063,19986 Z M 5241,19906 C 5279,19854 5296,19787 5296,19705 L 5239,19705 C 5239,19779 5223,19833 5195,19872 L 5241,19906 Z M 5241,19906 L 5241,19906 Z M 5296,19705 L 5296,19012 5239,19012 5239,19705 5296,19705 Z M 5296,19705 L 5296,19705 Z M 5296,19012 C 5296,18930 5279,18863 5241,18811 L 5195,18845 C 5223,18884 5239,18938 5239,19012 L 5296,19012 Z M 5296,19012 L 5296,19012 Z M 5241,18811 C 5201,18756 5140,18731 5063,18731 L 5063,18789 C 5127,18789 5169,18809 5195,18845 L 5241,18811 Z M 5241,18811 L 5241,18811 Z M 5063,18731 C 4987,18731 4926,18757 4887,18811 L 4933,18845 C 4959,18809 5000,18789 5063,18789 L 5063,18731 Z M 5063,18731 L 5063,18731 Z M 4887,18811 C 4850,18862 4833,18930 4833,19012 L 4890,19012 C 4890,18937 4905,18883 4933,18845 L 4887,18811 Z M 4887,18811 L 4887,18811 Z M 4833,19012 L 4833,19705 4890,19705 4890,19012 4833,19012 Z M 4833,19012 L 4833,19012 Z M 5573,20025 L 5544,20025 5544,20054 5573,20054 5573,20025 Z M 5573,20025 L 5573,20025 Z M 5573,18691 L 5573,18663 5544,18663 5544,18691 5573,18691 Z M 5573,18691 L 5573,18691 Z M 5940,19385 L 5933,19357 5934,19414 5940,19385 Z M 5940,19385 L 5940,19385 Z M 6162,20025 L 6162,20054 6215,20054 6186,20010 6162,20025 Z M 6162,20025 L 6162,20025 Z M 6072,20025 L 6048,20040 6056,20054 6072,20054 6072,20025 Z M 6072,20025 L 6072,20025 Z M 5981,19480 L 5963,19503 5963,19503 5981,19480 Z M 5981,19480 L 5981,19480 Z M 5659,19429 L 5659,19400 5631,19400 5631,19429 5659,19429 Z M 5659,19429 L 5659,19429 Z M 5659,20025 L 5659,20054 5688,20054 5688,20025 5659,20025 Z M 5659,20025 L 5659,20025 Z M 5659,19349 L 5631,19349 5631,19378 5659,19378 5659,19349 Z M 5659,19349 L 5659,19349 Z M 5984,19302 L 6002,19324 6002,19324 5984,19302 Z M 5984,19302 L 5984,19302 Z M 5659,18771 L 5659,18743 5631,18743 5631,18771 5659,18771 Z M 5659,18771 L 5659,18771 Z M 5601,20025 L 5601,18691 5544,18691 5544,20025 5601,20025 Z M 5601,20025 L 5601,20025 Z M 5573,18720 L 5848,18720 5848,18663 5573,18663 5573,18720 Z M 5573,18720 L 5573,18720 Z M 5848,18720 C 5937,18720 5999,18744 6039,18787 6079,18829 6102,18896 6102,18992 L 6159,18992 C 6159,18888 6134,18804 6080,18747 6026,18689 5947,18663 5848,18663 L 5848,18720 Z M 5848,18720 L 5848,18720 Z M 6102,18992 L 6102,19110 6159,19110 6159,18992 6102,18992 Z M 6102,18992 L 6102,18992 Z M 6102,19110 C 6102,19183 6087,19238 6059,19278 6032,19317 5991,19344 5933,19357 L 5946,19413 C 6015,19397 6070,19363 6106,19311 6142,19258 6159,19190 6159,19110 L 6102,19110 Z M 6102,19110 L 6102,19110 Z M 5934,19414 C 5991,19427 6032,19453 6059,19491 6087,19530 6102,19585 6102,19658 L 6159,19658 C 6159,19577 6142,19510 6106,19458 6069,19406 6015,19373 5946,19357 L 5934,19414 Z M 5934,19414 L 5934,19414 Z M 6102,19658 L 6102,19866 6159,19866 6159,19658 6102,19658 Z M 6102,19658 L 6102,19658 Z M 6102,19866 C 6102,19941 6112,20001 6139,20041 L 6186,20010 C 6169,19984 6159,19938 6159,19866 L 6102,19866 Z M 6102,19866 L 6102,19866 Z M 6162,19997 L 6072,19997 6072,20054 6162,20054 6162,19997 Z M 6162,19997 L 6162,19997 Z M 6097,20011 C 6082,19985 6072,19938 6072,19866 L 6015,19866 C 6015,19941 6025,20000 6048,20040 L 6097,20011 Z M 6097,20011 L 6097,20011 Z M 6072,19866 L 6072,19656 6015,19656 6015,19866 6072,19866 Z M 6072,19866 L 6072,19866 Z M 6072,19656 C 6072,19568 6051,19499 5999,19458 L 5963,19503 C 5995,19528 6015,19576 6015,19656 L 6072,19656 Z M 6072,19656 L 6072,19656 Z M 5999,19458 C 5950,19418 5882,19400 5797,19400 L 5797,19458 C 5875,19458 5929,19474 5963,19503 L 5999,19458 Z M 5999,19458 L 5999,19458 Z M 5797,19400 L 5659,19400 5659,19458 5797,19458 5797,19400 Z M 5797,19400 L 5797,19400 Z M 5631,19429 L 5631,20025 5688,20025 5688,19429 5631,19429 Z M 5631,19429 L 5631,19429 Z M 5659,19997 L 5573,19997 5573,20054 5659,20054 5659,19997 Z M 5659,19997 L 5659,19997 Z M 5659,19378 L 5799,19378 5799,19320 5659,19320 5659,19378 Z M 5659,19378 L 5659,19378 Z M 5799,19378 C 5885,19378 5954,19362 6002,19324 L 5966,19279 C 5934,19305 5880,19320 5799,19320 L 5799,19378 Z M 5799,19378 L 5799,19378 Z M 6002,19324 C 6052,19284 6072,19214 6072,19126 L 6015,19126 C 6015,19208 5996,19255 5966,19279 L 6002,19324 Z M 6002,19324 L 6002,19324 Z M 6072,19126 L 6072,19000 6015,19000 6015,19126 6072,19126 Z M 6072,19126 L 6072,19126 Z M 6072,19000 C 6072,18922 6056,18858 6019,18812 L 5975,18848 C 6000,18880 6015,18929 6015,19000 L 6072,19000 Z M 6072,19000 L 6072,19000 Z M 6019,18812 C 5980,18764 5920,18743 5846,18743 L 5846,18800 C 5910,18800 5951,18818 5975,18848 L 6019,18812 Z M 6019,18812 L 6019,18812 Z M 5846,18743 L 5659,18743 5659,18800 5846,18800 5846,18743 Z M 5846,18743 L 5846,18743 Z M 5631,18771 L 5631,19349 5688,19349 5688,18771 5631,18771 Z M 5631,18771 L 5631,18771 Z M 6938,19117 L 6938,19146 6967,19146 6967,19117 6938,19117 Z M 6938,19117 L 6938,19117 Z M 6856,19117 L 6826,19117 6826,19146 6856,19146 6856,19117 Z M 6856,19117 L 6856,19117 Z M 6856,19418 L 6884,19418 6884,19389 6856,19389 6856,19418 Z M 6856,19418 L 6856,19418 Z M 6680,19418 L 6651,19418 6651,19447 6680,19447 6680,19418 Z M 6680,19418 L 6680,19418 Z M 6680,19338 L 6680,19309 6651,19309 6651,19338 6680,19338 Z M 6680,19338 L 6680,19338 Z M 6938,19338 L 6967,19338 6967,19309 6938,19309 6938,19338 Z M 6938,19338 L 6938,19338 Z M 6869,19946 L 6891,19963 6891,19963 6869,19946 Z M 6869,19946 L 6869,19946 Z M 6439,19946 L 6416,19963 6416,19963 6439,19946 Z M 6439,19946 L 6439,19946 Z M 6398,19699 L 6398,19019 6341,19019 6341,19699 6398,19699 Z M 6398,19699 L 6398,19699 Z M 6398,19019 C 6398,18920 6420,18845 6462,18790 L 6416,18755 C 6365,18822 6341,18911 6341,19019 L 6398,19019 Z M 6398,19019 L 6398,19019 Z M 6462,18790 C 6501,18737 6563,18709 6653,18709 L 6653,18652 C 6551,18652 6470,18685 6416,18755 L 6462,18790 Z M 6462,18790 L 6462,18790 Z M 6653,18709 C 6743,18709 6805,18737 6845,18790 L 6891,18755 C 6837,18685 6756,18652 6653,18652 L 6653,18709 Z M 6653,18709 L 6653,18709 Z M 6845,18790 C 6888,18845 6910,18920 6910,19019 L 6967,19019 C 6967,18911 6943,18822 6891,18755 L 6845,18790 Z M 6845,18790 L 6845,18790 Z M 6910,19019 L 6910,19117 6967,19117 6967,19019 6910,19019 Z M 6910,19019 L 6910,19019 Z M 6938,19088 L 6856,19088 6856,19146 6938,19146 6938,19088 Z M 6938,19088 L 6938,19088 Z M 6884,19117 L 6884,19012 6826,19012 6826,19117 6884,19117 Z M 6884,19117 L 6884,19117 Z M 6884,19012 C 6884,18930 6867,18863 6830,18811 L 6784,18845 C 6811,18884 6826,18938 6826,19012 L 6884,19012 Z M 6884,19012 L 6884,19012 Z M 6830,18811 C 6791,18757 6731,18731 6655,18731 L 6655,18789 C 6718,18789 6758,18809 6784,18845 L 6830,18811 Z M 6830,18811 L 6830,18811 Z M 6655,18731 C 6579,18731 6519,18757 6480,18811 L 6527,18845 C 6552,18809 6592,18789 6655,18789 L 6655,18731 Z M 6655,18731 L 6655,18731 Z M 6480,18811 C 6444,18863 6427,18930 6427,19012 L 6484,19012 C 6484,18938 6499,18884 6527,18845 L 6480,18811 Z M 6480,18811 L 6480,18811 Z M 6427,19012 L 6427,19705 6484,19705 6484,19012 6427,19012 Z M 6427,19012 L 6427,19012 Z M 6427,19705 C 6427,19786 6444,19854 6480,19905 L 6527,19871 C 6499,19833 6484,19779 6484,19705 L 6427,19705 Z M 6427,19705 L 6427,19705 Z M 6480,19905 C 6519,19959 6579,19984 6655,19984 L 6655,19926 C 6592,19926 6552,19906 6527,19871 L 6480,19905 Z M 6480,19905 L 6480,19905 Z M 6655,19984 C 6731,19984 6791,19959 6830,19905 L 6784,19871 C 6759,19906 6718,19926 6655,19926 L 6655,19984 Z M 6655,19984 L 6655,19984 Z M 6830,19905 C 6867,19854 6884,19786 6884,19705 L 6826,19705 C 6826,19779 6811,19833 6784,19871 L 6830,19905 Z M 6830,19905 L 6830,19905 Z M 6884,19705 L 6884,19418 6826,19418 6826,19705 6884,19705 Z M 6884,19705 L 6884,19705 Z M 6856,19389 L 6680,19389 6680,19447 6856,19447 6856,19389 Z M 6856,19389 L 6856,19389 Z M 6708,19418 L 6708,19338 6651,19338 6651,19418 6708,19418 Z M 6708,19418 L 6708,19418 Z M 6680,19367 L 6938,19367 6938,19309 6680,19309 6680,19367 Z M 6680,19367 L 6680,19367 Z M 6910,19338 L 6910,19699 6967,19699 6967,19338 6910,19338 Z M 6910,19338 L 6910,19338 Z M 6910,19699 C 6910,19798 6888,19873 6845,19928 L 6891,19963 C 6943,19895 6967,19807 6967,19699 L 6910,19699 Z M 6910,19699 L 6910,19699 Z M 6845,19928 C 6805,19980 6743,20008 6653,20008 L 6653,20065 C 6756,20065 6837,20033 6891,19963 L 6845,19928 Z M 6845,19928 L 6845,19928 Z M 6653,20008 C 6563,20008 6501,19980 6462,19928 L 6416,19963 C 6470,20033 6551,20065 6653,20065 L 6653,20008 Z M 6653,20008 L 6653,20008 Z M 6462,19928 C 6420,19873 6398,19798 6398,19699 L 6341,19699 C 6341,19807 6365,19895 6416,19963 L 6462,19928 Z M 6462,19928 L 6462,19928 Z M 7159,20025 L 7130,20025 7130,20054 7159,20054 7159,20025 Z M 7159,20025 L 7159,20025 Z M 7159,18691 L 7159,18663 7130,18663 7130,18691 7159,18691 Z M 7159,18691 L 7159,18691 Z M 7245,18691 L 7274,18691 7274,18663 7245,18663 7245,18691 Z M 7245,18691 L 7245,18691 Z M 7245,20025 L 7245,20054 7274,20054 7274,20025 7245,20025 Z M 7245,20025 L 7245,20025 Z M 7188,20025 L 7188,18691 7130,18691 7130,20025 7188,20025 Z M 7188,20025 L 7188,20025 Z M 7159,18720 L 7245,18720 7245,18663 7159,18663 7159,18720 Z M 7159,18720 L 7159,18720 Z M 7217,18691 L 7217,20025 7274,20025 7274,18691 7217,18691 Z M 7217,18691 L 7217,18691 Z M 7245,19997 L 7159,19997 7159,20054 7245,20054 7245,19997 Z M 7245,19997 L 7245,19997 Z M 7452,20025 L 7424,20019 7417,20054 7452,20054 7452,20025 Z M 7452,20025 L 7452,20025 Z M 7741,18690 L 7741,18661 7718,18661 7713,18683 7741,18690 Z M 7741,18690 L 7741,18690 Z M 7867,18690 L 7895,18683 7890,18661 7867,18661 7867,18690 Z M 7867,18690 L 7867,18690 Z M 8160,20025 L 8160,20054 8196,20054 8188,20019 8160,20025 Z M 8160,20025 L 8160,20025 Z M 8074,20025 L 8046,20032 8051,20054 8074,20054 8074,20025 Z M 8074,20025 L 8074,20025 Z M 8009,19731 L 8036,19725 8031,19701 8009,19701 8009,19731 Z M 8009,19731 L 8009,19731 Z M 7598,19731 L 7598,19701 7575,19701 7570,19725 7598,19731 Z M 7598,19731 L 7598,19731 Z M 7531,20025 L 7531,20054 7554,20054 7559,20032 7531,20025 Z M 7531,20025 L 7531,20025 Z M 7610,19654 L 7583,19648 7575,19683 7610,19683 7610,19654 Z M 7610,19654 L 7610,19654 Z M 7995,19654 L 7995,19683 8030,19683 8023,19647 7995,19654 Z M 7995,19654 L 7995,19654 Z M 7801,18791 L 7829,18784 7773,18785 7801,18791 Z M 7801,18791 L 7801,18791 Z M 7480,20032 L 7769,18696 7713,18683 7424,20019 7480,20032 Z M 7480,20032 L 7480,20032 Z M 7741,18718 L 7867,18718 7867,18661 7741,18661 7741,18718 Z M 7741,18718 L 7741,18718 Z M 7839,18696 L 8132,20032 8188,20019 7895,18683 7839,18696 Z M 7839,18696 L 7839,18696 Z M 8160,19997 L 8074,19997 8074,20054 8160,20054 8160,19997 Z M 8160,19997 L 8160,19997 Z M 8102,20019 L 8036,19725 7981,19737 8046,20032 8102,20019 Z M 8102,20019 L 8102,20019 Z M 8009,19701 L 7598,19701 7598,19760 8009,19760 8009,19701 Z M 8009,19701 L 8009,19701 Z M 7570,19725 L 7504,20019 7559,20032 7625,19737 7570,19725 Z M 7570,19725 L 7570,19725 Z M 7531,19997 L 7452,19997 7452,20054 7531,20054 7531,19997 Z M 7531,19997 L 7531,19997 Z M 7610,19683 L 7995,19683 7995,19625 7610,19625 7610,19683 Z M 7610,19683 L 7610,19683 Z M 8023,19647 L 7829,18784 7773,18797 7967,19660 8023,19647 Z M 8023,19647 L 8023,19647 Z M 7773,18785 L 7583,19648 7638,19660 7829,18797 7773,18785 Z M 7773,18785 L 7773,18785 Z M 8367,20025 L 8339,20025 8339,20054 8367,20054 8367,20025 Z M 8367,20025 L 8367,20025 Z M 8367,18691 L 8367,18663 8339,18663 8339,18691 8367,18691 Z M 8367,18691 L 8367,18691 Z M 8480,18691 L 8507,18682 8500,18663 8480,18663 8480,18691 Z M 8480,18691 L 8480,18691 Z M 8876,19818 L 8849,19828 8904,19818 8876,19818 Z M 8876,19818 L 8876,19818 Z M 8876,18691 L 8876,18663 8847,18663 8847,18691 8876,18691 Z M 8876,18691 L 8876,18691 Z M 8955,18691 L 8983,18691 8983,18663 8955,18663 8955,18691 Z M 8955,18691 L 8955,18691 Z M 8955,20025 L 8955,20054 8983,20054 8983,20025 8955,20025 Z M 8955,20025 L 8955,20025 Z M 8858,20025 L 8831,20035 8838,20054 8858,20054 8858,20025 Z M 8858,20025 L 8858,20025 Z M 8446,18836 L 8473,18827 8418,18836 8446,18836 Z M 8446,18836 L 8446,18836 Z M 8446,20025 L 8446,20054 8475,20054 8475,20025 8446,20025 Z M 8446,20025 L 8446,20025 Z M 8396,20025 L 8396,18691 8339,18691 8339,20025 8396,20025 Z M 8396,20025 L 8396,20025 Z M 8367,18720 L 8480,18720 8480,18663 8367,18663 8367,18720 Z M 8367,18720 L 8367,18720 Z M 8453,18701 L 8849,19828 8902,19809 8507,18682 8453,18701 Z M 8453,18701 L 8453,18701 Z M 8904,19818 L 8904,18691 8847,18691 8847,19818 8904,19818 Z M 8904,19818 L 8904,19818 Z M 8876,18720 L 8955,18720 8955,18663 8876,18663 8876,18720 Z M 8876,18720 L 8876,18720 Z M 8926,18691 L 8926,20025 8983,20025 8983,18691 8926,18691 Z M 8926,18691 L 8926,18691 Z M 8955,19997 L 8858,19997 8858,20054 8955,20054 8955,19997 Z M 8955,19997 L 8955,19997 Z M 8885,20016 L 8473,18827 8419,18846 8831,20035 8885,20016 Z M 8885,20016 L 8885,20016 Z M 8418,18836 L 8418,20025 8475,20025 8475,18836 8418,18836 Z M 8418,18836 L 8418,18836 Z M 8446,19997 L 8367,19997 8367,20054 8446,20054 8446,19997 Z M 8446,19997 L 8446,19997 Z M 9913,20025 L 9885,20025 9885,20054 9913,20054 9913,20025 Z M 9913,20025 L 9913,20025 Z M 9913,18691 L 9913,18663 9885,18663 9885,18691 9913,18691 Z M 9913,18691 L 9913,18691 Z M 10280,19385 L 10274,19357 10274,19414 10280,19385 Z M 10280,19385 L 10280,19385 Z M 10503,20025 L 10503,20054 10556,20054 10527,20010 10503,20025 Z M 10503,20025 L 10503,20025 Z M 10413,20025 L 10388,20040 10396,20054 10413,20054 10413,20025 Z M 10413,20025 L 10413,20025 Z M 10322,19480 L 10304,19503 10304,19503 10322,19480 Z M 10322,19480 L 10322,19480 Z M 10000,19429 L 10000,19400 9971,19400 9971,19429 10000,19429 Z M 10000,19429 L 10000,19429 Z M 10000,20025 L 10000,20054 10028,20054 10028,20025 10000,20025 Z M 10000,20025 L 10000,20025 Z M 10000,19349 L 9971,19349 9971,19378 10000,19378 10000,19349 Z M 10000,19349 L 10000,19349 Z M 10324,19302 L 10342,19324 10342,19324 10324,19302 Z M 10324,19302 L 10324,19302 Z M 10000,18771 L 10000,18743 9971,18743 9971,18771 10000,18771 Z M 10000,18771 L 10000,18771 Z M 9942,20025 L 9942,18691 9885,18691 9885,20025 9942,20025 Z M 9942,20025 L 9942,20025 Z M 9913,18720 L 10188,18720 10188,18663 9913,18663 9913,18720 Z M 9913,18720 L 9913,18720 Z M 10188,18720 C 10278,18720 10339,18744 10379,18787 10420,18829 10442,18896 10442,18992 L 10499,18992 C 10499,18888 10475,18804 10421,18747 10367,18689 10287,18663 10188,18663 L 10188,18720 Z M 10188,18720 L 10188,18720 Z M 10442,18992 L 10442,19110 10499,19110 10499,18992 10442,18992 Z M 10442,18992 L 10442,18992 Z M 10442,19110 C 10442,19183 10427,19238 10400,19278 10373,19317 10332,19344 10274,19357 L 10287,19413 C 10356,19397 10410,19363 10446,19311 10483,19258 10499,19190 10499,19110 L 10442,19110 Z M 10442,19110 L 10442,19110 Z M 10274,19414 C 10332,19427 10373,19453 10400,19491 10427,19530 10442,19585 10442,19658 L 10499,19658 C 10499,19577 10483,19510 10446,19458 10410,19406 10356,19373 10287,19357 L 10274,19414 Z M 10274,19414 L 10274,19414 Z M 10442,19658 L 10442,19866 10499,19866 10499,19658 10442,19658 Z M 10442,19658 L 10442,19658 Z M 10442,19866 C 10442,19941 10453,20001 10479,20041 L 10527,20010 C 10510,19984 10499,19938 10499,19866 L 10442,19866 Z M 10442,19866 L 10442,19866 Z M 10503,19997 L 10413,19997 10413,20054 10503,20054 10503,19997 Z M 10503,19997 L 10503,19997 Z M 10437,20011 C 10422,19985 10413,19938 10413,19866 L 10356,19866 C 10356,19941 10365,20000 10388,20040 L 10437,20011 Z M 10437,20011 L 10437,20011 Z M 10413,19866 L 10413,19656 10356,19656 10356,19866 10413,19866 Z M 10413,19866 L 10413,19866 Z M 10413,19656 C 10413,19568 10391,19499 10339,19458 L 10304,19503 C 10336,19528 10356,19576 10356,19656 L 10413,19656 Z M 10413,19656 L 10413,19656 Z M 10340,19458 C 10291,19418 10222,19400 10138,19400 L 10138,19458 C 10215,19458 10269,19474 10304,19503 L 10340,19458 Z M 10340,19458 L 10340,19458 Z M 10138,19400 L 10000,19400 10000,19458 10138,19458 10138,19400 Z M 10138,19400 L 10138,19400 Z M 9971,19429 L 9971,20025 10028,20025 10028,19429 9971,19429 Z M 9971,19429 L 9971,19429 Z M 10000,19997 L 9913,19997 9913,20054 10000,20054 10000,19997 Z M 10000,19997 L 10000,19997 Z M 10000,19378 L 10140,19378 10140,19320 10000,19320 10000,19378 Z M 10000,19378 L 10000,19378 Z M 10140,19378 C 10226,19378 10295,19362 10342,19324 L 10307,19279 C 10274,19305 10220,19320 10140,19320 L 10140,19378 Z M 10140,19378 L 10140,19378 Z M 10342,19324 C 10392,19284 10413,19214 10413,19126 L 10356,19126 C 10356,19208 10336,19255 10307,19279 L 10342,19324 Z M 10342,19324 L 10342,19324 Z M 10413,19126 L 10413,19000 10356,19000 10356,19126 10413,19126 Z M 10413,19126 L 10413,19126 Z M 10413,19000 C 10413,18922 10396,18858 10359,18812 L 10315,18848 C 10341,18880 10356,18929 10356,19000 L 10413,19000 Z M 10413,19000 L 10413,19000 Z M 10359,18812 C 10321,18764 10261,18743 10187,18743 L 10187,18800 C 10251,18800 10291,18818 10315,18848 L 10359,18812 Z M 10359,18812 L 10359,18812 Z M 10187,18743 L 10000,18743 10000,18800 10187,18800 10187,18743 Z M 10187,18743 L 10187,18743 Z M 9971,18771 L 9971,19349 10028,19349 10028,18771 9971,18771 Z M 9971,18771 L 9971,18771 Z M 10715,20025 L 10687,20025 10687,20054 10715,20054 10715,20025 Z M 10715,20025 L 10715,20025 Z M 10715,18691 L 10715,18663 10687,18663 10687,18691 10715,18691 Z M 10715,18691 L 10715,18691 Z M 11235,18691 L 11263,18691 11263,18663 11235,18663 11235,18691 Z M 11235,18691 L 11235,18691 Z M 11235,18771 L 11235,18800 11263,18800 11263,18771 11235,18771 Z M 11235,18771 L 11235,18771 Z M 10802,18771 L 10802,18743 10773,18743 10773,18771 10802,18771 Z M 10802,18771 L 10802,18771 Z M 10802,19309 L 10773,19309 10773,19338 10802,19338 10802,19309 Z M 10802,19309 L 10802,19309 Z M 11161,19309 L 11190,19309 11190,19280 11161,19280 11161,19309 Z M 11161,19309 L 11161,19309 Z M 11161,19389 L 11161,19418 11190,19418 11190,19389 11161,19389 Z M 11161,19389 L 11161,19389 Z M 10802,19389 L 10802,19360 10773,19360 10773,19389 10802,19389 Z M 10802,19389 L 10802,19389 Z M 10802,19946 L 10773,19946 10773,19974 10802,19974 10802,19946 Z M 10802,19946 L 10802,19946 Z M 11235,19946 L 11263,19946 11263,19917 11235,19917 11235,19946 Z M 11235,19946 L 11235,19946 Z M 11235,20025 L 11235,20054 11263,20054 11263,20025 11235,20025 Z M 11235,20025 L 11235,20025 Z M 10744,20025 L 10744,18691 10687,18691 10687,20025 10744,20025 Z M 10744,20025 L 10744,20025 Z M 10715,18720 L 11235,18720 11235,18663 10715,18663 10715,18720 Z M 10715,18720 L 10715,18720 Z M 11206,18691 L 11206,18771 11263,18771 11263,18691 11206,18691 Z M 11206,18691 L 11206,18691 Z M 11235,18743 L 10802,18743 10802,18800 11235,18800 11235,18743 Z M 11235,18743 L 11235,18743 Z M 10773,18771 L 10773,19309 10830,19309 10830,18771 10773,18771 Z M 10773,18771 L 10773,18771 Z M 10802,19338 L 11161,19338 11161,19280 10802,19280 10802,19338 Z M 10802,19338 L 10802,19338 Z M 11133,19309 L 11133,19389 11190,19389 11190,19309 11133,19309 Z M 11133,19309 L 11133,19309 Z M 11161,19360 L 10802,19360 10802,19418 11161,19418 11161,19360 Z M 11161,19360 L 11161,19360 Z M 10773,19389 L 10773,19946 10830,19946 10830,19389 10773,19389 Z M 10773,19389 L 10773,19389 Z M 10802,19974 L 11235,19974 11235,19917 10802,19917 10802,19974 Z M 10802,19974 L 10802,19974 Z M 11206,19946 L 11206,20025 11263,20025 11263,19946 11206,19946 Z M 11206,19946 L 11206,19946 Z M 11235,19997 L 10715,19997 10715,20054 11235,20054 11235,19997 Z M 11235,19997 L 11235,19997 Z M 11440,19634 L 11440,19606 11411,19606 11411,19634 11440,19634 Z M 11440,19634 L 11440,19634 Z M 11522,19634 L 11551,19634 11551,19606 11522,19606 11522,19634 Z M 11522,19634 L 11522,19634 Z M 11570,19890 L 11547,19907 11547,19907 11570,19890 Z M 11570,19890 L 11570,19890 Z M 11874,19890 L 11897,19907 11897,19907 11874,19890 Z M 11874,19890 L 11874,19890 Z M 11895,19590 L 11869,19602 11869,19602 11869,19603 11895,19590 Z M 11895,19590 L 11895,19590 Z M 11734,19418 L 11717,19441 11717,19441 11734,19418 Z M 11734,19418 L 11734,19418 Z M 11633,19341 L 11615,19364 11615,19364 11633,19341 Z M 11633,19341 L 11633,19341 Z M 11540,19257 L 11519,19277 11519,19277 11540,19257 Z M 11540,19257 L 11540,19257 Z M 11471,19150 L 11445,19161 11445,19162 11445,19162 11471,19150 Z M 11471,19150 L 11471,19150 Z M 11514,18769 L 11492,18750 11492,18751 11514,18769 Z M 11514,18769 L 11514,18769 Z M 11726,18680 L 11726,18652 11725,18652 11726,18680 Z M 11726,18680 L 11726,18680 Z M 11887,18725 L 11870,18749 11871,18749 11887,18725 Z M 11887,18725 L 11887,18725 Z M 11978,18842 L 11952,18852 11952,18852 11978,18842 Z M 11978,18842 L 11978,18842 Z M 12006,19043 L 12006,19071 12035,19071 12035,19043 12006,19043 Z M 12006,19043 L 12006,19043 Z M 11923,19043 L 11895,19043 11895,19071 11923,19071 11923,19043 Z M 11923,19043 L 11923,19043 Z M 11557,19127 L 11531,19139 11532,19140 11532,19140 11557,19127 Z M 11557,19127 L 11557,19127 Z M 11626,19223 L 11607,19244 11607,19244 11626,19223 Z M 11626,19223 L 11626,19223 Z M 11719,19301 L 11702,19324 11702,19324 11719,19301 Z M 11719,19301 L 11719,19301 Z M 11820,19378 L 11803,19401 11803,19401 11820,19378 Z M 11820,19378 L 11820,19378 Z M 11981,19567 L 11955,19578 11955,19578 11981,19567 Z M 11981,19567 L 11981,19567 Z M 11468,19703 L 11468,19634 11411,19634 11411,19703 11468,19703 Z M 11468,19703 L 11468,19703 Z M 11440,19663 L 11522,19663 11522,19606 11440,19606 11440,19663 Z M 11440,19663 L 11440,19663 Z M 11494,19634 L 11494,19709 11551,19709 11551,19634 11494,19634 Z M 11494,19634 L 11494,19634 Z M 11494,19709 C 11494,19790 11511,19856 11547,19907 L 11593,19873 C 11566,19835 11551,19782 11551,19709 L 11494,19709 Z M 11494,19709 L 11494,19709 Z M 11547,19907 C 11586,19960 11647,19984 11722,19984 L 11722,19926 C 11659,19926 11618,19907 11593,19873 L 11547,19907 Z M 11547,19907 L 11547,19907 Z M 11722,19984 C 11797,19984 11858,19960 11897,19907 L 11851,19873 C 11826,19907 11785,19926 11722,19926 L 11722,19984 Z M 11722,19984 L 11722,19984 Z M 11897,19907 C 11933,19856 11950,19790 11950,19709 L 11893,19709 C 11893,19782 11878,19835 11851,19873 L 11897,19907 Z M 11897,19907 L 11897,19907 Z M 11950,19709 C 11950,19661 11940,19617 11920,19577 L 11869,19603 C 11885,19634 11893,19669 11893,19709 L 11950,19709 Z M 11950,19709 L 11950,19709 Z M 11921,19577 C 11902,19538 11877,19503 11846,19474 L 11807,19516 C 11833,19540 11853,19569 11869,19602 L 11921,19577 Z M 11921,19577 L 11921,19577 Z M 11846,19474 C 11817,19446 11785,19420 11751,19395 L 11717,19441 C 11750,19465 11780,19490 11807,19516 L 11846,19474 Z M 11846,19474 L 11846,19474 Z M 11751,19395 C 11717,19369 11684,19344 11650,19318 L 11615,19364 C 11649,19390 11683,19416 11717,19441 L 11751,19395 Z M 11751,19395 L 11751,19395 Z M 11650,19318 C 11618,19292 11588,19265 11560,19237 L 11519,19277 C 11549,19307 11581,19336 11615,19364 L 11650,19318 Z M 11650,19318 L 11650,19318 Z M 11560,19237 C 11535,19210 11514,19178 11497,19139 L 11445,19162 C 11464,19206 11489,19245 11519,19277 L 11560,19237 Z M 11560,19237 L 11560,19237 Z M 11497,19139 C 11482,19101 11474,19059 11474,19012 L 11417,19012 C 11417,19066 11426,19115 11445,19161 L 11497,19139 Z M 11497,19139 L 11497,19139 Z M 11474,19012 C 11474,18912 11496,18838 11536,18787 L 11492,18751 C 11441,18816 11417,18904 11417,19012 L 11474,19012 Z M 11474,19012 L 11474,19012 Z M 11536,18787 C 11576,18737 11637,18710 11726,18709 L 11725,18652 C 11625,18652 11545,18684 11492,18750 L 11536,18787 Z M 11536,18787 L 11536,18787 Z M 11726,18709 C 11786,18709 11833,18723 11870,18749 L 11903,18701 C 11854,18667 11794,18652 11726,18652 L 11726,18709 Z M 11726,18709 L 11726,18709 Z M 11871,18749 C 11909,18775 11936,18809 11952,18852 L 12005,18832 C 11985,18777 11950,18733 11902,18701 L 11871,18749 Z M 11871,18749 L 11871,18749 Z M 11952,18852 C 11969,18897 11978,18950 11978,19015 L 12035,19015 C 12035,18945 12025,18884 12005,18832 L 11952,18852 Z M 11952,18852 L 11952,18852 Z M 11978,19015 L 11978,19043 12035,19043 12035,19015 11978,19015 Z M 11978,19015 L 11978,19015 Z M 12006,19014 L 11923,19014 11923,19071 12006,19071 12006,19014 Z M 12006,19014 L 12006,19014 Z M 11952,19043 L 11952,19008 11895,19008 11895,19043 11952,19043 Z M 11952,19043 L 11952,19043 Z M 11952,19008 C 11952,18928 11935,18861 11900,18810 L 11853,18844 C 11880,18882 11895,18935 11895,19008 L 11952,19008 Z M 11952,19008 L 11952,19008 Z M 11900,18810 C 11862,18756 11802,18731 11727,18731 L 11727,18789 C 11789,18789 11829,18809 11853,18844 L 11900,18810 Z M 11900,18810 L 11900,18810 Z M 11727,18731 C 11653,18731 11593,18756 11555,18809 L 11602,18843 C 11626,18809 11666,18789 11727,18789 L 11727,18731 Z M 11727,18731 L 11727,18731 Z M 11555,18809 C 11519,18860 11503,18926 11503,19006 L 11560,19006 C 11560,18934 11575,18880 11602,18843 L 11555,18809 Z M 11555,18809 L 11555,18809 Z M 11503,19006 C 11503,19054 11512,19098 11531,19139 L 11583,19115 C 11568,19082 11560,19046 11560,19006 L 11503,19006 Z M 11503,19006 L 11503,19006 Z M 11532,19140 C 11551,19179 11576,19214 11607,19244 L 11646,19202 C 11620,19177 11599,19148 11583,19114 L 11532,19140 Z M 11532,19140 L 11532,19140 Z M 11607,19244 C 11636,19271 11668,19298 11702,19324 L 11736,19278 C 11703,19253 11673,19228 11646,19202 L 11607,19244 Z M 11607,19244 L 11607,19244 Z M 11702,19324 C 11736,19349 11769,19374 11803,19401 L 11838,19355 C 11804,19328 11770,19303 11736,19278 L 11702,19324 Z M 11702,19324 L 11702,19324 Z M 11803,19401 C 11836,19426 11866,19453 11893,19481 L 11934,19440 C 11904,19410 11872,19382 11838,19355 L 11803,19401 Z M 11803,19401 L 11803,19401 Z M 11893,19481 C 11918,19507 11939,19539 11955,19578 L 12008,19555 C 11989,19511 11965,19472 11934,19440 L 11893,19481 Z M 11893,19481 L 11893,19481 Z M 11955,19578 C 11971,19616 11979,19657 11979,19703 L 12036,19703 C 12036,19650 12027,19601 12007,19555 L 11955,19578 Z M 11955,19578 L 11955,19578 Z M 11979,19703 C 11979,19801 11957,19875 11916,19929 L 11960,19964 C 12012,19898 12036,19810 12036,19703 L 11979,19703 Z M 11979,19703 L 11979,19703 Z M 11916,19929 C 11876,19980 11814,20008 11724,20008 L 11724,20065 C 11826,20065 11907,20033 11960,19964 L 11916,19929 Z M 11916,19929 L 11916,19929 Z M 11724,20008 C 11634,20008 11572,19980 11532,19929 L 11487,19964 C 11541,20033 11621,20065 11724,20065 L 11724,20008 Z M 11724,20008 L 11724,20008 Z M 11532,19929 C 11490,19875 11468,19801 11468,19703 L 11411,19703 C 11411,19810 11435,19898 11487,19964 L 11532,19929 Z M 11532,19929 L 11532,19929 Z M 12182,18771 L 12153,18771 12153,18800 12182,18800 12182,18771 Z M 12182,18771 L 12182,18771 Z M 12182,18691 L 12182,18663 12153,18663 12153,18691 12182,18691 Z M 12182,18691 L 12182,18691 Z M 12805,18691 L 12834,18691 12834,18663 12805,18663 12805,18691 Z M 12805,18691 L 12805,18691 Z M 12805,18771 L 12805,18800 12834,18800 12834,18771 12805,18771 Z M 12805,18771 L 12805,18771 Z M 12537,18771 L 12537,18743 12509,18743 12509,18771 12537,18771 Z M 12537,18771 L 12537,18771 Z M 12537,20025 L 12537,20054 12566,20054 12566,20025 12537,20025 Z M 12537,20025 L 12537,20025 Z M 12451,20025 L 12422,20025 12422,20054 12451,20054 12451,20025 Z M 12451,20025 L 12451,20025 Z M 12451,18771 L 12480,18771 12480,18743 12451,18743 12451,18771 Z M 12451,18771 L 12451,18771 Z M 12210,18771 L 12210,18691 12153,18691 12153,18771 12210,18771 Z M 12210,18771 L 12210,18771 Z M 12182,18720 L 12805,18720 12805,18663 12182,18663 12182,18720 Z M 12182,18720 L 12182,18720 Z M 12776,18691 L 12776,18771 12834,18771 12834,18691 12776,18691 Z M 12776,18691 L 12776,18691 Z M 12805,18743 L 12537,18743 12537,18800 12805,18800 12805,18743 Z M 12805,18743 L 12805,18743 Z M 12509,18771 L 12509,20025 12566,20025 12566,18771 12509,18771 Z M 12509,18771 L 12509,18771 Z M 12537,19997 L 12451,19997 12451,20054 12537,20054 12537,19997 Z M 12537,19997 L 12537,19997 Z M 12480,20025 L 12480,18771 12422,18771 12422,20025 12480,20025 Z M 12480,20025 L 12480,20025 Z M 12451,18743 L 12182,18743 12182,18800 12451,18800 12451,18743 Z M 12451,18743 L 12451,18743 Z M 12902,20025 L 12875,20019 12867,20054 12902,20054 12902,20025 Z M 12902,20025 L 12902,20025 Z M 13191,18690 L 13191,18661 13168,18661 13163,18683 13191,18690 Z M 13191,18690 L 13191,18690 Z M 13317,18690 L 13345,18683 13340,18661 13317,18661 13317,18690 Z M 13317,18690 L 13317,18690 Z M 13610,20025 L 13610,20054 13646,20054 13638,20019 13610,20025 Z M 13610,20025 L 13610,20025 Z M 13524,20025 L 13496,20032 13501,20054 13524,20054 13524,20025 Z M 13524,20025 L 13524,20025 Z M 13459,19731 L 13487,19725 13482,19701 13459,19701 13459,19731 Z M 13459,19731 L 13459,19731 Z M 13048,19731 L 13048,19701 13025,19701 13020,19725 13048,19731 Z M 13048,19731 L 13048,19731 Z M 12981,20025 L 12981,20054 13004,20054 13009,20032 12981,20025 Z M 12981,20025 L 12981,20025 Z M 13061,19654 L 13033,19648 13025,19683 13061,19683 13061,19654 Z M 13061,19654 L 13061,19654 Z M 13445,19654 L 13445,19683 13481,19683 13473,19647 13445,19654 Z M 13445,19654 L 13445,19654 Z M 13251,18791 L 13279,18784 13223,18785 13251,18791 Z M 13251,18791 L 13251,18791 Z M 12930,20032 L 13219,18696 13163,18683 12875,20019 12930,20032 Z M 12930,20032 L 12930,20032 Z M 13191,18718 L 13317,18718 13317,18661 13191,18661 13191,18718 Z M 13191,18718 L 13191,18718 Z M 13289,18696 L 13583,20032 13638,20019 13345,18683 13289,18696 Z M 13289,18696 L 13289,18696 Z M 13610,19997 L 13524,19997 13524,20054 13610,20054 13610,19997 Z M 13610,19997 L 13610,19997 Z M 13552,20019 L 13487,19725 13431,19737 13496,20032 13552,20019 Z M 13552,20019 L 13552,20019 Z M 13459,19701 L 13048,19701 13048,19760 13459,19760 13459,19701 Z M 13459,19701 L 13459,19701 Z M 13020,19725 L 12954,20019 13009,20032 13076,19737 13020,19725 Z M 13020,19725 L 13020,19725 Z M 12981,19997 L 12902,19997 12902,20054 12981,20054 12981,19997 Z M 12981,19997 L 12981,19997 Z M 13061,19683 L 13445,19683 13445,19625 13061,19625 13061,19683 Z M 13061,19683 L 13061,19683 Z M 13473,19647 L 13279,18784 13223,18797 13417,19660 13473,19647 Z M 13473,19647 L 13473,19647 Z M 13223,18785 L 13033,19648 13088,19660 13279,18797 13223,18785 Z M 13223,18785 L 13223,18785 Z M 13814,18691 L 13814,18663 13785,18663 13785,18691 13814,18691 Z M 13814,18691 L 13814,18691 Z M 13900,18691 L 13929,18691 13929,18663 13900,18663 13900,18691 Z M 13900,18691 L 13900,18691 Z M 13947,19889 L 13923,19905 13924,19905 13924,19906 13947,19889 Z M 13947,19889 L 13947,19889 Z M 14249,19889 L 14225,19872 14225,19872 14249,19889 Z M 14249,19889 L 14249,19889 Z M 14296,18691 L 14296,18663 14268,18663 14268,18691 14296,18691 Z M 14296,18691 L 14296,18691 Z M 14377,18691 L 14406,18691 14406,18663 14377,18663 14377,18691 Z M 14377,18691 L 14377,18691 Z M 14308,19945 L 14286,19927 14285,19927 14308,19945 Z M 14308,19945 L 14308,19945 Z M 13883,19945 L 13860,19962 13860,19962 13883,19945 Z M 13883,19945 L 13883,19945 Z M 13842,19699 L 13842,18691 13785,18691 13785,19699 13842,19699 Z M 13842,19699 L 13842,19699 Z M 13814,18720 L 13900,18720 13900,18663 13814,18663 13814,18720 Z M 13814,18720 L 13814,18720 Z M 13871,18691 L 13871,19703 13929,19703 13929,18691 13871,18691 Z M 13871,18691 L 13871,18691 Z M 13871,19703 C 13871,19785 13888,19853 13923,19905 L 13970,19873 C 13943,19833 13929,19778 13929,19703 L 13871,19703 Z M 13871,19703 L 13871,19703 Z M 13924,19906 C 13962,19960 14022,19986 14099,19986 L 14099,19928 C 14036,19928 13995,19908 13970,19872 L 13924,19906 Z M 13924,19906 L 13924,19906 Z M 14099,19986 C 14174,19986 14234,19960 14272,19905 L 14225,19872 C 14201,19908 14161,19928 14099,19928 L 14099,19986 Z M 14099,19986 L 14099,19986 Z M 14272,19906 C 14308,19853 14325,19785 14325,19703 L 14268,19703 C 14268,19778 14253,19833 14225,19872 L 14272,19906 Z M 14272,19906 L 14272,19906 Z M 14325,19703 L 14325,18691 14268,18691 14268,19703 14325,19703 Z M 14325,19703 L 14325,19703 Z M 14296,18720 L 14377,18720 14377,18663 14296,18663 14296,18720 Z M 14296,18720 L 14296,18720 Z M 14349,18691 L 14349,19699 14406,19699 14406,18691 14349,18691 Z M 14349,18691 L 14349,18691 Z M 14349,19699 C 14349,19798 14327,19872 14286,19927 L 14331,19962 C 14382,19894 14406,19806 14406,19699 L 14349,19699 Z M 14349,19699 L 14349,19699 Z M 14285,19927 C 14247,19980 14186,20008 14096,20008 L 14096,20065 C 14199,20065 14279,20032 14331,19962 L 14285,19927 Z M 14285,19927 L 14285,19927 Z M 14096,20008 C 14007,20008 13945,19980 13905,19927 L 13860,19962 C 13913,20032 13994,20065 14096,20065 L 14096,20008 Z M 14096,20008 L 14096,20008 Z M 13905,19927 C 13864,19872 13842,19798 13842,19699 L 13785,19699 C 13785,19806 13809,19894 13860,19962 L 13905,19927 Z M 13905,19927 L 13905,19927 Z M 14602,20025 L 14573,20025 14573,20054 14602,20054 14602,20025 Z M 14602,20025 L 14602,20025 Z M 14602,18691 L 14602,18663 14573,18663 14573,18691 14602,18691 Z M 14602,18691 L 14602,18691 Z M 14968,19385 L 14962,19357 14962,19414 14968,19385 Z M 14968,19385 L 14968,19385 Z M 15191,20025 L 15191,20054 15244,20054 15215,20010 15191,20025 Z M 15191,20025 L 15191,20025 Z M 15101,20025 L 15076,20040 15084,20054 15101,20054 15101,20025 Z M 15101,20025 L 15101,20025 Z M 15010,19480 L 14992,19503 14992,19503 15010,19480 Z M 15010,19480 L 15010,19480 Z M 14688,19429 L 14688,19400 14659,19400 14659,19429 14688,19429 Z M 14688,19429 L 14688,19429 Z M 14688,20025 L 14688,20054 14717,20054 14717,20025 14688,20025 Z M 14688,20025 L 14688,20025 Z M 14688,19349 L 14659,19349 14659,19378 14688,19378 14688,19349 Z M 14688,19349 L 14688,19349 Z M 15013,19302 L 15030,19324 15030,19324 15013,19302 Z M 15013,19302 L 15013,19302 Z M 14688,18771 L 14688,18743 14659,18743 14659,18771 14688,18771 Z M 14688,18771 L 14688,18771 Z M 14630,20025 L 14630,18691 14573,18691 14573,20025 14630,20025 Z M 14630,20025 L 14630,20025 Z M 14602,18720 L 14877,18720 14877,18663 14602,18663 14602,18720 Z M 14602,18720 L 14602,18720 Z M 14877,18720 C 14966,18720 15028,18744 15068,18787 15108,18829 15130,18896 15130,18992 L 15187,18992 C 15187,18888 15163,18804 15109,18747 15055,18689 14975,18663 14877,18663 L 14877,18720 Z M 14877,18720 L 14877,18720 Z M 15130,18992 L 15130,19110 15187,19110 15187,18992 15130,18992 Z M 15130,18992 L 15130,18992 Z M 15130,19110 C 15130,19183 15115,19238 15088,19278 15061,19317 15020,19344 14962,19357 L 14975,19413 C 15044,19397 15098,19363 15135,19311 15171,19258 15187,19190 15187,19110 L 15130,19110 Z M 15130,19110 L 15130,19110 Z M 14962,19414 C 15020,19427 15061,19453 15088,19491 15115,19530 15130,19585 15130,19658 L 15187,19658 C 15187,19577 15171,19510 15135,19458 15098,19406 15044,19373 14975,19357 L 14962,19414 Z M 14962,19414 L 14962,19414 Z M 15130,19658 L 15130,19866 15187,19866 15187,19658 15130,19658 Z M 15130,19658 L 15130,19658 Z M 15130,19866 C 15130,19941 15141,20001 15167,20041 L 15215,20010 C 15198,19984 15187,19938 15187,19866 L 15130,19866 Z M 15130,19866 L 15130,19866 Z M 15191,19997 L 15101,19997 15101,20054 15191,20054 15191,19997 Z M 15191,19997 L 15191,19997 Z M 15125,20011 C 15110,19985 15101,19938 15101,19866 L 15044,19866 C 15044,19941 15053,20000 15076,20040 L 15125,20011 Z M 15125,20011 L 15125,20011 Z M 15101,19866 L 15101,19656 15044,19656 15044,19866 15101,19866 Z M 15101,19866 L 15101,19866 Z M 15101,19656 C 15101,19568 15079,19499 15028,19458 L 14992,19503 C 15024,19528 15044,19576 15044,19656 L 15101,19656 Z M 15101,19656 L 15101,19656 Z M 15028,19458 C 14979,19418 14910,19400 14826,19400 L 14826,19458 C 14903,19458 14957,19474 14992,19503 L 15028,19458 Z M 15028,19458 L 15028,19458 Z M 14826,19400 L 14688,19400 14688,19458 14826,19458 14826,19400 Z M 14826,19400 L 14826,19400 Z M 14659,19429 L 14659,20025 14717,20025 14717,19429 14659,19429 Z M 14659,19429 L 14659,19429 Z M 14688,19997 L 14602,19997 14602,20054 14688,20054 14688,19997 Z M 14688,19997 L 14688,19997 Z M 14688,19378 L 14828,19378 14828,19320 14688,19320 14688,19378 Z M 14688,19378 L 14688,19378 Z M 14828,19378 C 14914,19378 14983,19362 15030,19324 L 14995,19279 C 14962,19305 14909,19320 14828,19320 L 14828,19378 Z M 14828,19378 L 14828,19378 Z M 15030,19324 C 15080,19284 15101,19214 15101,19126 L 15044,19126 C 15044,19208 15024,19255 14995,19279 L 15030,19324 Z M 15030,19324 L 15030,19324 Z M 15101,19126 L 15101,19000 15044,19000 15044,19126 15101,19126 Z M 15101,19126 L 15101,19126 Z M 15101,19000 C 15101,18922 15085,18858 15048,18812 L 15003,18848 C 15029,18880 15044,18929 15044,19000 L 15101,19000 Z M 15101,19000 L 15101,19000 Z M 15048,18812 C 15009,18764 14949,18743 14875,18743 L 14875,18800 C 14939,18800 14979,18818 15003,18848 L 15048,18812 Z M 15048,18812 L 15048,18812 Z M 14875,18743 L 14688,18743 14688,18800 14875,18800 14875,18743 Z M 14875,18743 L 14875,18743 Z M 14659,18771 L 14659,19349 14717,19349 14717,18771 14659,18771 Z M 14659,18771 L 14659,18771 Z M 15384,20025 L 15356,20019 15349,20054 15384,20054 15384,20025 Z M 15384,20025 L 15384,20025 Z M 15673,18690 L 15673,18661 15650,18661 15645,18683 15673,18690 Z M 15673,18690 L 15673,18690 Z M 15799,18690 L 15827,18683 15822,18661 15799,18661 15799,18690 Z M 15799,18690 L 15799,18690 Z M 16092,20025 L 16092,20054 16128,20054 16120,20019 16092,20025 Z M 16092,20025 L 16092,20025 Z M 16006,20025 L 15978,20032 15983,20054 16006,20054 16006,20025 Z M 16006,20025 L 16006,20025 Z M 15940,19731 L 15968,19725 15963,19701 15940,19701 15940,19731 Z M 15940,19731 L 15940,19731 Z M 15529,19731 L 15529,19701 15506,19701 15501,19725 15529,19731 Z M 15529,19731 L 15529,19731 Z M 15463,20025 L 15463,20054 15486,20054 15491,20032 15463,20025 Z M 15463,20025 L 15463,20025 Z M 15542,19654 L 15514,19648 15507,19683 15542,19683 15542,19654 Z M 15542,19654 L 15542,19654 Z M 15926,19654 L 15926,19683 15962,19683 15954,19647 15926,19654 Z M 15926,19654 L 15926,19654 Z M 15732,18791 L 15760,18784 15705,18785 15732,18791 Z M 15732,18791 L 15732,18791 Z M 15412,20032 L 15701,18696 15645,18683 15356,20019 15412,20032 Z M 15412,20032 L 15412,20032 Z M 15673,18718 L 15799,18718 15799,18661 15673,18661 15673,18718 Z M 15673,18718 L 15673,18718 Z M 15771,18696 L 16064,20032 16120,20019 15827,18683 15771,18696 Z M 15771,18696 L 15771,18696 Z M 16092,19997 L 16006,19997 16006,20054 16092,20054 16092,19997 Z M 16092,19997 L 16092,19997 Z M 16033,20019 L 15968,19725 15912,19737 15978,20032 16033,20019 Z M 16033,20019 L 16033,20019 Z M 15940,19701 L 15529,19701 15529,19760 15940,19760 15940,19701 Z M 15940,19701 L 15940,19701 Z M 15501,19725 L 15435,20019 15491,20032 15557,19737 15501,19725 Z M 15501,19725 L 15501,19725 Z M 15463,19997 L 15384,19997 15384,20054 15463,20054 15463,19997 Z M 15463,19997 L 15463,19997 Z M 15542,19683 L 15926,19683 15926,19625 15542,19625 15542,19683 Z M 15542,19683 L 15542,19683 Z M 15954,19647 L 15760,18784 15705,18797 15899,19660 15954,19647 Z M 15954,19647 L 15954,19647 Z M 15705,18785 L 15514,19648 15570,19660 15760,18797 15705,18785 Z M 15705,18785 L 15705,18785 Z M 16299,20025 L 16270,20025 16270,20054 16299,20054 16299,20025 Z M 16299,20025 L 16299,20025 Z M 16299,18691 L 16299,18663 16270,18663 16270,18691 16299,18691 Z M 16299,18691 L 16299,18691 Z M 16412,18691 L 16439,18682 16432,18663 16412,18663 16412,18691 Z M 16412,18691 L 16412,18691 Z M 16807,19818 L 16780,19828 16836,19818 16807,19818 Z M 16807,19818 L 16807,19818 Z M 16807,18691 L 16807,18663 16779,18663 16779,18691 16807,18691 Z M 16807,18691 L 16807,18691 Z M 16886,18691 L 16915,18691 16915,18663 16886,18663 16886,18691 Z M 16886,18691 L 16886,18691 Z M 16886,20025 L 16886,20054 16915,20054 16915,20025 16886,20025 Z M 16886,20025 L 16886,20025 Z M 16790,20025 L 16763,20035 16770,20054 16790,20054 16790,20025 Z M 16790,20025 L 16790,20025 Z M 16378,18836 L 16405,18827 16349,18836 16378,18836 Z M 16378,18836 L 16378,18836 Z M 16378,20025 L 16378,20054 16406,20054 16406,20025 16378,20025 Z M 16378,20025 L 16378,20025 Z M 16327,20025 L 16327,18691 16270,18691 16270,20025 16327,20025 Z M 16327,20025 L 16327,20025 Z M 16299,18720 L 16412,18720 16412,18663 16299,18663 16299,18720 Z M 16299,18720 L 16299,18720 Z M 16385,18701 L 16780,19828 16834,19809 16439,18682 16385,18701 Z M 16385,18701 L 16385,18701 Z M 16836,19818 L 16836,18691 16779,18691 16779,19818 16836,19818 Z M 16836,19818 L 16836,19818 Z M 16807,18720 L 16886,18720 16886,18663 16807,18663 16807,18720 Z M 16807,18720 L 16807,18720 Z M 16858,18691 L 16858,20025 16915,20025 16915,18691 16858,18691 Z M 16858,18691 L 16858,18691 Z M 16886,19997 L 16790,19997 16790,20054 16886,20054 16886,19997 Z M 16886,19997 L 16886,19997 Z M 16817,20016 L 16405,18827 16351,18846 16763,20035 16817,20016 Z M 16817,20016 L 16817,20016 Z M 16349,18836 L 16349,20025 16406,20025 16406,18836 16349,18836 Z M 16349,18836 L 16349,18836 Z M 16378,19997 L 16299,19997 16299,20054 16378,20054 16378,19997 Z M 16378,19997 L 16378,19997 Z M 17068,18771 L 17040,18771 17040,18800 17068,18800 17068,18771 Z M 17068,18771 L 17068,18771 Z M 17068,18691 L 17068,18663 17040,18663 17040,18691 17068,18691 Z M 17068,18691 L 17068,18691 Z M 17692,18691 L 17720,18691 17720,18663 17692,18663 17692,18691 Z M 17692,18691 L 17692,18691 Z M 17692,18771 L 17692,18800 17720,18800 17720,18771 17692,18771 Z M 17692,18771 L 17692,18771 Z M 17424,18771 L 17424,18743 17396,18743 17396,18771 17424,18771 Z M 17424,18771 L 17424,18771 Z M 17424,20025 L 17424,20054 17453,20054 17453,20025 17424,20025 Z M 17424,20025 L 17424,20025 Z M 17338,20025 L 17309,20025 17309,20054 17338,20054 17338,20025 Z M 17338,20025 L 17338,20025 Z M 17338,18771 L 17366,18771 17366,18743 17338,18743 17338,18771 Z M 17338,18771 L 17338,18771 Z M 17097,18771 L 17097,18691 17040,18691 17040,18771 17097,18771 Z M 17097,18771 L 17097,18771 Z M 17068,18720 L 17692,18720 17692,18663 17068,18663 17068,18720 Z M 17068,18720 L 17068,18720 Z M 17663,18691 L 17663,18771 17720,18771 17720,18691 17663,18691 Z M 17663,18691 L 17663,18691 Z M 17692,18743 L 17424,18743 17424,18800 17692,18800 17692,18743 Z M 17692,18743 L 17692,18743 Z M 17396,18771 L 17396,20025 17453,20025 17453,18771 17396,18771 Z M 17396,18771 L 17396,18771 Z M 17424,19997 L 17338,19997 17338,20054 17424,20054 17424,19997 Z M 17424,19997 L 17424,19997 Z M 17366,20025 L 17366,18771 17309,18771 17309,20025 17366,20025 Z M 17366,20025 L 17366,20025 Z M 17338,18743 L 17068,18743 17068,18800 17338,18800 17338,18743 Z "/>
         </g>
        </g>
        <g class="com.sun.star.drawing.ClosedBezierShape">
         <g id="id13">
          <rect class="BoundingBox" stroke="none" fill="none" x="3256" y="18681" width="14436" height="1356"/>
          <path fill="rgb(0,0,0)" stroke="none" d="M 3256,19700 L 3256,19018 C 3256,18916 3279,18834 3325,18772 3372,18711 3443,18681 3540,18681 3636,18681 3707,18711 3754,18772 3800,18834 3824,18916 3824,19018 L 3824,19116 3741,19116 3741,19011 C 3741,18934 3725,18873 3693,18828 3661,18783 3611,18760 3541,18760 3472,18760 3422,18783 3390,18828 3358,18873 3342,18934 3342,19011 L 3342,19705 C 3342,19782 3358,19843 3390,19887 3422,19932 3472,19954 3541,19954 3611,19954 3661,19932 3693,19887 3725,19843 3741,19782 3741,19705 L 3741,19418 3566,19418 3566,19337 3824,19337 3824,19700 C 3824,19802 3800,19883 3754,19945 3707,20005 3636,20036 3540,20036 3443,20036 3372,20005 3325,19945 3279,19883 3256,19802 3256,19700 Z M 3256,19700 L 3256,19700 Z M 3969,20025 L 3256,19700 3969,20025 Z M 4044,20025 L 4044,18692 4564,18692 4564,18772 4131,18772 4131,19308 4490,19308 4490,19389 4131,19389 4131,19945 4564,19945 4564,20025 4044,20025 Z M 4044,20025 L 4044,20025 Z M 4704,20025 L 4044,20025 4704,20025 Z M 4774,19700 L 4774,19018 C 4774,18916 4798,18834 4846,18772 4895,18711 4967,18681 5062,18681 5160,18681 5233,18711 5281,18772 5330,18834 5355,18916 5355,19018 L 5355,19700 C 5355,19802 5330,19883 5281,19945 5233,20005 5160,20036 5062,20036 4967,20036 4895,20005 4846,19945 4798,19883 4774,19802 4774,19700 Z M 4774,19700 L 4774,19700 Z M 4861,19705 C 4861,19783 4877,19844 4910,19889 4942,19934 4993,19956 5062,19956 5133,19956 5184,19933 5218,19888 5251,19843 5267,19782 5267,19705 L 5267,19011 C 5267,18934 5251,18873 5218,18828 5184,18783 5133,18760 5062,18760 4993,18760 4942,18783 4910,18828 4877,18873 4861,18934 4861,19011 L 4861,19705 Z M 4861,19705 L 4861,19705 Z M 5497,20025 L 4861,19705 5497,20025 Z M 5572,20025 L 5572,18692 5847,18692 C 6036,18692 6130,18792 6130,18993 L 6130,19109 C 6130,19263 6066,19355 5939,19386 6066,19414 6130,19505 6130,19658 L 6130,19865 C 6130,19939 6140,19992 6162,20025 L 6072,20025 C 6053,19992 6043,19939 6043,19865 L 6043,19656 C 6043,19572 6022,19514 5981,19480 5939,19446 5878,19429 5797,19429 L 5659,19429 5659,20025 5572,20025 Z M 5572,20025 L 5572,20025 Z M 5659,19348 L 5799,19348 C 5882,19348 5944,19333 5983,19301 6023,19269 6043,19210 6043,19125 L 6043,19000 C 6043,18926 6028,18869 5996,18830 5965,18791 5915,18772 5845,18772 L 5659,18772 5659,19348 Z M 5659,19348 L 5659,19348 Z M 6299,20025 L 5659,19348 6299,20025 Z M 6369,19700 L 6369,19018 C 6369,18916 6392,18834 6438,18772 6485,18711 6556,18681 6653,18681 6749,18681 6820,18711 6868,18772 6915,18834 6938,18916 6938,19018 L 6938,19116 6854,19116 6854,19011 C 6854,18934 6838,18873 6806,18828 6774,18783 6724,18760 6655,18760 6585,18760 6535,18783 6503,18828 6471,18873 6455,18934 6455,19011 L 6455,19705 C 6455,19782 6471,19843 6503,19887 6535,19932 6585,19954 6655,19954 6724,19954 6774,19932 6806,19887 6838,19843 6854,19782 6854,19705 L 6854,19418 6679,19418 6679,19337 6938,19337 6938,19700 C 6938,19802 6915,19883 6868,19945 6820,20005 6749,20036 6653,20036 6556,20036 6485,20005 6438,19945 6392,19883 6369,19802 6369,19700 Z M 6369,19700 L 6369,19700 Z M 7083,20025 L 6369,19700 7083,20025 Z M 7158,20025 L 7158,18692 7245,18692 7245,20025 7158,20025 Z M 7158,20025 L 7158,20025 Z M 7396,20025 L 7158,20025 7396,20025 Z M 7452,20025 L 7740,18690 7866,18690 8160,20025 8073,20025 8008,19730 7597,19730 7531,20025 7452,20025 Z M 7452,20025 L 7452,20025 Z M 7610,19654 L 7994,19654 7800,18791 7610,19654 Z M 7610,19654 L 7610,19654 Z M 8291,20025 L 7610,19654 8291,20025 Z M 8367,20025 L 8367,18692 8480,18692 8875,19818 8875,18692 8954,18692 8954,20025 8858,20025 8446,18837 8446,20025 8367,20025 Z M 8367,20025 L 8367,20025 Z M 9838,20025 L 8367,20025 9838,20025 Z M 9913,20025 L 9913,18692 10188,18692 C 10376,18692 10470,18792 10470,18993 L 10470,19109 C 10470,19263 10407,19355 10280,19386 10407,19414 10470,19505 10470,19658 L 10470,19865 C 10470,19939 10481,19992 10502,20025 L 10412,20025 C 10393,19992 10384,19939 10384,19865 L 10384,19656 C 10384,19572 10363,19514 10321,19480 10279,19446 10218,19429 10137,19429 L 9999,19429 9999,20025 9913,20025 Z M 9913,20025 L 9913,20025 Z M 9999,19348 L 10139,19348 C 10222,19348 10284,19333 10324,19301 10364,19269 10384,19210 10384,19125 L 10384,19000 C 10384,18926 10368,18869 10337,18830 10306,18791 10255,18772 10186,18772 L 9999,18772 9999,19348 Z M 9999,19348 L 9999,19348 Z M 10639,20025 L 9999,19348 10639,20025 Z M 10715,20025 L 10715,18692 11234,18692 11234,18772 10801,18772 10801,19308 11161,19308 11161,19389 10801,19389 10801,19945 11234,19945 11234,20025 10715,20025 Z M 10715,20025 L 10715,20025 Z M 11375,20025 L 10715,20025 11375,20025 Z M 11439,19703 L 11439,19635 11522,19635 11522,19709 C 11522,19785 11538,19845 11570,19889 11602,19932 11652,19954 11721,19954 11791,19954 11841,19932 11873,19889 11905,19845 11921,19785 11921,19709 11921,19665 11912,19626 11894,19590 11877,19553 11854,19522 11826,19495 11798,19469 11767,19443 11733,19418 11700,19393 11666,19367 11632,19340 11598,19313 11568,19286 11539,19256 11511,19227 11488,19191 11470,19150 11453,19107 11445,19061 11445,19011 11445,18908 11468,18827 11514,18769 11560,18711 11631,18681 11725,18681 11789,18681 11843,18695 11886,18725 11929,18754 11960,18793 11978,18842 11996,18890 12006,18948 12006,19014 L 12006,19042 11923,19042 11923,19007 C 11923,18932 11907,18872 11876,18827 11845,18783 11795,18760 11727,18760 11659,18760 11609,18782 11578,18826 11547,18870 11531,18930 11531,19006 11531,19049 11540,19089 11557,19126 11575,19163 11598,19195 11626,19222 11654,19249 11685,19275 11719,19300 11752,19325 11786,19351 11820,19378 11854,19404 11884,19432 11913,19461 11941,19490 11964,19525 11981,19567 11998,19608 12007,19654 12007,19703 12007,19805 11984,19886 11937,19946 11891,20006 11819,20036 11723,20036 11627,20036 11556,20006 11509,19946 11462,19886 11439,19805 11439,19703 Z M 11439,19703 L 11439,19703 Z M 12147,20025 L 11439,19703 12147,20025 Z M 12181,18772 L 12181,18692 12804,18692 12804,18772 12537,18772 12537,20025 12450,20025 12450,18772 12181,18772 Z M 12181,18772 L 12181,18772 Z M 12846,20025 L 12181,18772 12846,20025 Z M 12902,20025 L 13191,18690 13317,18690 13610,20025 13523,20025 13458,19730 13047,19730 12981,20025 12902,20025 Z M 12902,20025 L 12902,20025 Z M 13060,19654 L 13444,19654 13250,18791 13060,19654 Z M 13060,19654 L 13060,19654 Z M 13741,20025 L 13060,19654 13741,20025 Z M 13813,19700 L 13813,18692 13899,18692 13899,19703 C 13899,19781 13915,19842 13946,19888 13978,19933 14028,19956 14098,19956 14167,19956 14217,19933 14248,19888 14280,19842 14296,19781 14296,19703 L 14296,18692 14377,18692 14377,19700 C 14377,19801 14354,19883 14308,19944 14262,20005 14192,20036 14096,20036 14000,20036 13929,20005 13882,19944 13836,19883 13813,19801 13813,19700 Z M 13813,19700 L 13813,19700 Z M 14526,20025 L 13813,19700 14526,20025 Z M 14601,20025 L 14601,18692 14876,18692 C 15064,18692 15158,18792 15158,18993 L 15158,19109 C 15158,19263 15095,19355 14968,19386 15095,19414 15158,19505 15158,19658 L 15158,19865 C 15158,19939 15169,19992 15190,20025 L 15100,20025 C 15081,19992 15072,19939 15072,19865 L 15072,19656 C 15072,19572 15051,19514 15009,19480 14968,19446 14906,19429 14825,19429 L 14687,19429 14687,20025 14601,20025 Z M 14601,20025 L 14601,20025 Z M 14687,19348 L 14827,19348 C 14911,19348 14972,19333 15012,19301 15052,19269 15072,19210 15072,19125 L 15072,19000 C 15072,18926 15056,18869 15025,18830 14994,18791 14943,18772 14874,18772 L 14687,18772 14687,19348 Z M 14687,19348 L 14687,19348 Z M 15327,20025 L 14687,19348 15327,20025 Z M 15383,20025 L 15672,18690 15798,18690 16091,20025 16005,20025 15940,19730 15529,19730 15463,20025 15383,20025 Z M 15383,20025 L 15383,20025 Z M 15542,19654 L 15926,19654 15732,18791 15542,19654 Z M 15542,19654 L 15542,19654 Z M 16223,20025 L 15542,19654 16223,20025 Z M 16298,20025 L 16298,18692 16411,18692 16807,19818 16807,18692 16886,18692 16886,20025 16789,20025 16377,18837 16377,20025 16298,20025 Z M 16298,20025 L 16298,20025 Z M 17034,20025 L 16298,20025 17034,20025 Z M 17068,18772 L 17068,18692 17691,18692 17691,18772 17424,18772 17424,20025 17337,20025 17337,18772 17068,18772 Z "/>
         </g>
        </g>
       </g>
      </g>
     </g>
    </g>
   </g>
  </g>
 </g>
</svg>